<svg width="1920" height="369" viewBox="0 0 1920 369" fill="none" xmlns="http://www.w3.org/2000/svg">
<rect width="1920" height="369" fill="#FFC11E"/>
<path opacity="0.15" d="M235.1 301.118C282.1 301.118 320.2 294.85 320.2 287.118C320.2 279.386 282.1 273.118 235.1 273.118C188.101 273.118 150 279.386 150 287.118C150 294.85 188.101 301.118 235.1 301.118Z" fill="black"/>
<path d="M319.989 228.867C318.722 225.073 315.457 221.925 313.442 218.651C309.682 212.524 311.083 205.288 312.51 198.699C314.189 190.96 314.189 187.124 314.861 179.233C316.114 164.234 315.522 149.139 313.098 134.284C310.714 119.703 306.013 105.652 303.285 91.1641C301.682 82.7701 298.736 75.4926 295.437 67.661C294.455 65.3107 293.758 65.6717 292.524 67.3924C287.326 75.0865 282.732 83.1716 278.783 91.5754C277.726 93.7578 267.317 116.245 268.425 116.573C262.491 114.843 253.778 111.956 236.142 111.956C219.724 111.956 211.548 114.331 205.504 116.573C205.546 116.573 202.986 110.42 202.768 110.008C196.875 98.1646 190.907 86.346 184.091 75.0897C183.252 73.6963 180.188 66.2928 178.056 67.4764C174.111 69.6672 172.608 78.783 171.509 82.8289C166.884 99.7259 162.276 117.462 160.051 134.871C157.231 157.031 155.988 179.301 158.549 201.536C158.943 204.961 159.556 208.998 158.683 212.347C157.315 217.602 152.312 221.027 150.49 226.114C148.719 231.032 151.968 235.036 156.66 235.347C157.844 235.422 167.983 232.686 167.631 230.99C168.135 233.433 168.47 235.255 168.898 237.051C171.61 248.458 182.421 282.84 191.915 288.254C198.034 291.763 203.062 288.195 203.129 280.809C203.129 279.608 203.003 278.399 202.919 276.863C213.561 280.775 224.796 282.831 236.134 282.941C248.006 282.87 259.784 280.825 270.986 276.889C270.902 278.425 270.759 279.633 270.776 280.834C270.843 288.22 275.871 291.746 281.99 288.279C287.656 285.022 290.653 276.964 292.902 270.996C296.193 262.283 299.617 249.13 301.791 240.031C302.219 238.234 302.547 236.413 303.059 233.97C302.857 234.936 311.545 238.05 312.561 238.167C316.011 238.646 319.763 237.563 320.401 233.416C320.634 231.889 320.493 230.328 319.989 228.867ZM210.558 164.292C212.482 164.26 214.372 164.802 215.987 165.849C217.603 166.895 218.87 168.398 219.628 170.167C220.386 171.936 220.601 173.891 220.244 175.782C219.888 177.673 218.976 179.416 217.626 180.787C216.276 182.159 214.548 183.097 212.663 183.484C210.777 183.87 208.82 183.686 207.039 182.956C205.258 182.226 203.735 180.982 202.664 179.384C201.592 177.785 201.021 175.903 201.022 173.979C201.012 172.717 201.251 171.465 201.725 170.295C202.198 169.125 202.898 168.06 203.784 167.16C204.669 166.261 205.723 165.545 206.885 165.053C208.048 164.56 209.295 164.302 210.558 164.292ZM187.6 214.924L184.528 213.716C184.528 213.716 185.703 209.611 186.123 208.075L190.462 194.796L198.218 217.459C194.623 216.87 191.074 216.022 187.6 214.924ZM200.3 217.762C203.582 211.357 209.928 201.964 212.891 196.777L215.031 202.594C216.887 208.075 219.287 214.286 220.857 219.961C213.311 219.491 206.377 218.752 200.3 217.762ZM238.316 220.481C233.28 220.481 228.319 220.355 223.593 220.112L237.317 196.861C241.028 204.642 244.62 212.482 248.23 220.364C244.989 220.431 241.682 220.481 238.316 220.481ZM251.293 220.196C255.146 212.029 258.092 203.769 261.651 196.861C265.252 205.171 267.166 210.148 271.002 218.534C265.009 219.314 258.369 219.885 251.293 220.196ZM264.338 183.674C262.415 183.699 260.528 183.151 258.917 182.101C257.307 181.051 256.044 179.546 255.291 177.777C254.538 176.008 254.328 174.055 254.688 172.166C255.048 170.277 255.961 168.538 257.312 167.169C258.662 165.801 260.389 164.865 262.273 164.48C264.157 164.096 266.113 164.28 267.892 165.01C269.671 165.74 271.193 166.983 272.264 168.58C273.335 170.177 273.906 172.056 273.907 173.979C273.917 175.244 273.677 176.499 273.201 177.672C272.725 178.844 272.023 179.911 271.134 180.812C270.245 181.712 269.187 182.429 268.021 182.92C266.855 183.411 265.603 183.667 264.338 183.674ZM290.56 214.555C285.188 216.147 279.702 217.328 274.15 218.089L287.656 194.779L290.82 214.127C290.752 214.28 290.665 214.424 290.56 214.555Z" fill="#1B1C1E"/>
<path d="M438.823 175.621C441.273 178.581 444.788 180.083 449.277 180.083C452.266 180.148 455.202 179.279 457.673 177.597C458.992 176.727 460.075 175.543 460.823 174.151C461.572 172.76 461.964 171.204 461.964 169.624C461.964 168.044 461.572 166.489 460.823 165.097C460.075 163.706 458.992 162.522 457.673 161.652C455.204 159.964 452.268 159.091 449.277 159.156H409.318C406.294 159.09 403.324 159.958 400.812 161.642C399.473 162.499 398.376 163.685 397.625 165.086C396.874 166.487 396.495 168.058 396.523 169.647V218.367C396.503 219.952 396.894 221.516 397.657 222.905C398.419 224.295 399.528 225.464 400.876 226.299C403.339 228.016 406.279 228.914 409.281 228.867H449.241C452.238 228.914 455.175 228.019 457.637 226.308C458.971 225.461 460.066 224.287 460.817 222.897C461.568 221.507 461.95 219.947 461.926 218.367C461.942 216.785 461.56 215.225 460.816 213.829C460.071 212.434 458.987 211.248 457.664 210.381C455.215 208.614 452.261 207.685 449.241 207.731C444.742 207.731 441.227 209.252 438.777 212.284H422.012V175.621H438.823Z" fill="#1B1C1E"/>
<path d="M520.765 199.942C523.727 199.999 526.63 199.109 529.051 197.401C530.406 196.6 531.526 195.456 532.298 194.084C533.07 192.712 533.468 191.161 533.45 189.588V169.717C533.464 168.125 533.072 166.556 532.313 165.157C531.553 163.758 530.449 162.576 529.106 161.721C526.671 159.995 523.749 159.092 520.765 159.144H480.696C477.66 159.124 474.689 160.029 472.181 161.74C470.896 162.631 469.85 163.825 469.136 165.216C468.421 166.608 468.06 168.153 468.083 169.717V218.301C468.042 219.89 468.415 221.463 469.166 222.864C469.916 224.266 471.018 225.449 472.363 226.296C474.801 228.007 477.717 228.906 480.696 228.864H520.765C523.738 228.922 526.652 228.025 529.079 226.305C530.447 225.473 531.571 224.295 532.339 222.889C533.106 221.484 533.489 219.901 533.45 218.301C533.457 216.72 533.063 215.163 532.303 213.777C531.543 212.391 530.443 211.221 529.106 210.378C526.673 208.648 523.749 207.745 520.765 207.801C516.266 207.801 512.769 209.321 510.365 212.354H493.563V199.969L520.765 199.942ZM493.563 175.536H507.997V183.55H493.563V175.536Z" fill="#1B1C1E"/>
<path d="M591.964 161.642C589.464 159.967 586.512 159.099 583.504 159.155H553.935C550.923 159.098 547.966 159.97 545.466 161.651C544.125 162.507 543.027 163.692 542.274 165.093C541.522 166.495 541.141 168.065 541.167 169.655V218.375C541.148 219.962 541.539 221.526 542.304 222.916C543.068 224.306 544.179 225.474 545.529 226.307C548.012 227.979 550.937 228.871 553.93 228.871C556.923 228.871 559.848 227.979 562.331 226.307C563.663 225.459 564.757 224.284 565.507 222.894C566.258 221.504 566.641 219.946 566.62 218.366V175.566H573.131C575.617 178.525 579.105 180.028 583.504 180.028C586.489 180.093 589.42 179.227 591.891 177.551C593.243 176.715 594.357 175.544 595.123 174.151C595.889 172.758 596.281 171.19 596.262 169.601C596.28 168.018 595.895 166.457 595.143 165.065C594.391 163.673 593.297 162.495 591.964 161.642V161.642Z" fill="#1B1C1E"/>
<path d="M662.911 161.633C660.438 159.945 657.499 159.073 654.506 159.138H627.241V147.445C627.256 145.861 626.874 144.299 626.127 142.901C625.381 141.504 624.295 140.317 622.97 139.45C620.51 137.711 617.557 136.808 614.546 136.872C611.516 136.802 608.542 137.702 606.059 139.441C604.733 140.31 603.647 141.498 602.9 142.897C602.154 144.296 601.771 145.86 601.788 147.445V218.367C601.768 219.952 602.159 221.515 602.922 222.905C603.684 224.295 604.793 225.464 606.141 226.299C608.604 228.016 611.544 228.914 614.546 228.867H654.506C657.503 228.915 660.441 228.02 662.902 226.308C664.237 225.462 665.333 224.288 666.085 222.897C666.838 221.507 667.222 219.948 667.2 218.367V169.647C667.228 168.056 666.849 166.485 666.098 165.082C665.347 163.679 664.25 162.492 662.911 161.633V161.633ZM641.747 212.247H627.241V175.612H641.747V212.247Z" fill="#1B1C1E"/>
<path d="M736.365 161.629C733.896 159.941 730.96 159.069 727.969 159.134H688.01C684.998 159.077 682.041 159.948 679.541 161.629C678.202 162.486 677.104 163.672 676.353 165.073C675.603 166.474 675.223 168.045 675.251 169.634V218.354C675.23 219.94 675.62 221.504 676.383 222.894C677.146 224.284 678.256 225.452 679.604 226.286C682.067 228.004 685.008 228.902 688.01 228.854H727.969C730.967 228.901 733.904 228.006 736.365 226.295C737.698 225.446 738.791 224.272 739.542 222.882C740.292 221.492 740.675 219.934 740.655 218.354V169.643C740.683 168.052 740.303 166.481 739.553 165.078C738.802 163.676 737.705 162.488 736.365 161.629V161.629ZM715.202 212.244H700.695V175.608H715.202V212.244Z" fill="#1B1C1E"/>
<path d="M809.898 188.253C807.452 186.478 804.496 185.545 801.475 185.594H774.192V175.577H790.583C793.197 180.039 796.858 182.297 801.511 182.297C804.828 182.15 807.97 180.767 810.318 178.419C812.666 176.071 814.05 172.929 814.197 169.612C814.225 168.023 813.847 166.454 813.097 165.053C812.348 163.652 811.253 162.466 809.916 161.607C807.444 159.919 804.505 159.047 801.511 159.112H761.515C758.503 159.056 755.547 159.927 753.046 161.607C751.708 162.465 750.612 163.651 749.861 165.052C749.111 166.453 748.731 168.023 748.757 169.612V191.75C748.74 193.336 749.132 194.899 749.896 196.289C750.66 197.679 751.77 198.847 753.119 199.682C755.592 201.363 758.526 202.232 761.515 202.168H788.762V212.185H771.915C769.511 209.18 766.014 207.632 761.515 207.632C758.478 207.575 755.501 208.48 753.01 210.218C751.691 211.104 750.613 212.303 749.87 213.708C749.128 215.113 748.746 216.68 748.757 218.268C748.738 219.853 749.128 221.417 749.891 222.806C750.654 224.196 751.762 225.365 753.11 226.2C755.573 227.917 758.514 228.815 761.515 228.768H801.511C804.509 228.817 807.446 227.921 809.907 226.209C811.241 225.363 812.336 224.188 813.087 222.798C813.838 221.408 814.22 219.848 814.197 218.268V196.24C814.211 194.654 813.825 193.09 813.073 191.694C812.322 190.298 811.23 189.114 809.898 188.253V188.253Z" fill="#1B1C1E"/>
<path d="M933.159 188.2C933.159 184.76 933.799 181.74 935.079 179.14C936.399 176.54 938.179 174.54 940.419 173.14C942.659 171.74 945.159 171.04 947.919 171.04C950.279 171.04 952.339 171.52 954.099 172.48C955.899 173.44 957.279 174.7 958.239 176.26V171.52H968.499V205H958.239V200.26C957.239 201.82 955.839 203.08 954.039 204.04C952.279 205 950.219 205.48 947.859 205.48C945.139 205.48 942.659 204.78 940.419 203.38C938.179 201.94 936.399 199.92 935.079 197.32C933.799 194.68 933.159 191.64 933.159 188.2ZM958.239 188.26C958.239 185.7 957.519 183.68 956.079 182.2C954.679 180.72 952.959 179.98 950.919 179.98C948.879 179.98 947.139 180.72 945.699 182.2C944.299 183.64 943.599 185.64 943.599 188.2C943.599 190.76 944.299 192.8 945.699 194.32C947.139 195.8 948.879 196.54 950.919 196.54C952.959 196.54 954.679 195.8 956.079 194.32C957.519 192.84 958.239 190.82 958.239 188.26ZM1008.98 171.52V205H998.721V200.44C997.681 201.92 996.261 203.12 994.461 204.04C992.701 204.92 990.741 205.36 988.581 205.36C986.021 205.36 983.761 204.8 981.801 203.68C979.841 202.52 978.321 200.86 977.241 198.7C976.161 196.54 975.621 194 975.621 191.08V171.52H985.821V189.7C985.821 191.94 986.401 193.68 987.561 194.92C988.721 196.16 990.281 196.78 992.241 196.78C994.241 196.78 995.821 196.16 996.981 194.92C998.141 193.68 998.721 191.94 998.721 189.7V171.52H1008.98ZM1035.01 196.3V205H1029.79C1026.07 205 1023.17 204.1 1021.09 202.3C1019.01 200.46 1017.97 197.48 1017.97 193.36V180.04H1013.89V171.52H1017.97V163.36H1028.23V171.52H1034.95V180.04H1028.23V193.48C1028.23 194.48 1028.47 195.2 1028.95 195.64C1029.43 196.08 1030.23 196.3 1031.35 196.3H1035.01ZM1061.31 171.16C1065.15 171.16 1068.23 172.44 1070.55 175C1072.87 177.52 1074.03 181 1074.03 185.44V205H1063.83V186.82C1063.83 184.58 1063.25 182.84 1062.09 181.6C1060.93 180.36 1059.37 179.74 1057.41 179.74C1055.45 179.74 1053.89 180.36 1052.73 181.6C1051.57 182.84 1050.99 184.58 1050.99 186.82V205H1040.73V160.6H1050.99V176.02C1052.03 174.54 1053.45 173.36 1055.25 172.48C1057.05 171.6 1059.07 171.16 1061.31 171.16ZM1096.4 205.48C1093.12 205.48 1090.16 204.78 1087.52 203.38C1084.92 201.98 1082.86 199.98 1081.34 197.38C1079.86 194.78 1079.12 191.74 1079.12 188.26C1079.12 184.82 1079.88 181.8 1081.4 179.2C1082.92 176.56 1085 174.54 1087.64 173.14C1090.28 171.74 1093.24 171.04 1096.52 171.04C1099.8 171.04 1102.76 171.74 1105.4 173.14C1108.04 174.54 1110.12 176.56 1111.64 179.2C1113.16 181.8 1113.92 184.82 1113.92 188.26C1113.92 191.7 1113.14 194.74 1111.58 197.38C1110.06 199.98 1107.96 201.98 1105.28 203.38C1102.64 204.78 1099.68 205.48 1096.4 205.48ZM1096.4 196.6C1098.36 196.6 1100.02 195.88 1101.38 194.44C1102.78 193 1103.48 190.94 1103.48 188.26C1103.48 185.58 1102.8 183.52 1101.44 182.08C1100.12 180.64 1098.48 179.92 1096.52 179.92C1094.52 179.92 1092.86 180.64 1091.54 182.08C1090.22 183.48 1089.56 185.54 1089.56 188.26C1089.56 190.94 1090.2 193 1091.48 194.44C1092.8 195.88 1094.44 196.6 1096.4 196.6ZM1129.62 177.1C1130.82 175.26 1132.32 173.82 1134.12 172.78C1135.92 171.7 1137.92 171.16 1140.12 171.16V182.02H1137.3C1134.74 182.02 1132.82 182.58 1131.54 183.7C1130.26 184.78 1129.62 186.7 1129.62 189.46V205H1119.36V171.52H1129.62V177.1ZM1150.18 168.04C1148.38 168.04 1146.9 167.52 1145.74 166.48C1144.62 165.4 1144.06 164.08 1144.06 162.52C1144.06 160.92 1144.62 159.6 1145.74 158.56C1146.9 157.48 1148.38 156.94 1150.18 156.94C1151.94 156.94 1153.38 157.48 1154.5 158.56C1155.66 159.6 1156.24 160.92 1156.24 162.52C1156.24 164.08 1155.66 165.4 1154.5 166.48C1153.38 167.52 1151.94 168.04 1150.18 168.04ZM1155.28 171.52V205H1145.02V171.52H1155.28ZM1172.32 196.54H1186.84V205H1160.86V196.84L1174.78 179.98H1160.98V171.52H1186.54V179.68L1172.32 196.54ZM1190.44 188.2C1190.44 184.76 1191.08 181.74 1192.36 179.14C1193.68 176.54 1195.46 174.54 1197.7 173.14C1199.94 171.74 1202.44 171.04 1205.2 171.04C1207.56 171.04 1209.62 171.52 1211.38 172.48C1213.18 173.44 1214.56 174.7 1215.52 176.26V171.52H1225.78V205H1215.52V200.26C1214.52 201.82 1213.12 203.08 1211.32 204.04C1209.56 205 1207.5 205.48 1205.14 205.48C1202.42 205.48 1199.94 204.78 1197.7 203.38C1195.46 201.94 1193.68 199.92 1192.36 197.32C1191.08 194.68 1190.44 191.64 1190.44 188.2ZM1215.52 188.26C1215.52 185.7 1214.8 183.68 1213.36 182.2C1211.96 180.72 1210.24 179.98 1208.2 179.98C1206.16 179.98 1204.42 180.72 1202.98 182.2C1201.58 183.64 1200.88 185.64 1200.88 188.2C1200.88 190.76 1201.58 192.8 1202.98 194.32C1204.42 195.8 1206.16 196.54 1208.2 196.54C1210.24 196.54 1211.96 195.8 1213.36 194.32C1214.8 192.84 1215.52 190.82 1215.52 188.26ZM1251.87 196.3V205H1246.65C1242.93 205 1240.03 204.1 1237.95 202.3C1235.87 200.46 1234.83 197.48 1234.83 193.36V180.04H1230.75V171.52H1234.83V163.36H1245.09V171.52H1251.81V180.04H1245.09V193.48C1245.09 194.48 1245.33 195.2 1245.81 195.64C1246.29 196.08 1247.09 196.3 1248.21 196.3H1251.87ZM1262.74 168.04C1260.94 168.04 1259.46 167.52 1258.3 166.48C1257.18 165.4 1256.62 164.08 1256.62 162.52C1256.62 160.92 1257.18 159.6 1258.3 158.56C1259.46 157.48 1260.94 156.94 1262.74 156.94C1264.5 156.94 1265.94 157.48 1267.06 158.56C1268.22 159.6 1268.8 160.92 1268.8 162.52C1268.8 164.08 1268.22 165.4 1267.06 166.48C1265.94 167.52 1264.5 168.04 1262.74 168.04ZM1267.84 171.52V205H1257.58V171.52H1267.84ZM1290.52 205.48C1287.24 205.48 1284.28 204.78 1281.64 203.38C1279.04 201.98 1276.98 199.98 1275.46 197.38C1273.98 194.78 1273.24 191.74 1273.24 188.26C1273.24 184.82 1274 181.8 1275.52 179.2C1277.04 176.56 1279.12 174.54 1281.76 173.14C1284.4 171.74 1287.36 171.04 1290.64 171.04C1293.92 171.04 1296.88 171.74 1299.52 173.14C1302.16 174.54 1304.24 176.56 1305.76 179.2C1307.28 181.8 1308.04 184.82 1308.04 188.26C1308.04 191.7 1307.26 194.74 1305.7 197.38C1304.18 199.98 1302.08 201.98 1299.4 203.38C1296.76 204.78 1293.8 205.48 1290.52 205.48ZM1290.52 196.6C1292.48 196.6 1294.14 195.88 1295.5 194.44C1296.9 193 1297.6 190.94 1297.6 188.26C1297.6 185.58 1296.92 183.52 1295.56 182.08C1294.24 180.64 1292.6 179.92 1290.64 179.92C1288.64 179.92 1286.98 180.64 1285.66 182.08C1284.34 183.48 1283.68 185.54 1283.68 188.26C1283.68 190.94 1284.32 193 1285.6 194.44C1286.92 195.88 1288.56 196.6 1290.52 196.6ZM1333.88 171.16C1337.8 171.16 1340.92 172.44 1343.24 175C1345.6 177.52 1346.78 181 1346.78 185.44V205H1336.58V186.82C1336.58 184.58 1336 182.84 1334.84 181.6C1333.68 180.36 1332.12 179.74 1330.16 179.74C1328.2 179.74 1326.64 180.36 1325.48 181.6C1324.32 182.84 1323.74 184.58 1323.74 186.82V205H1313.48V171.52H1323.74V175.96C1324.78 174.48 1326.18 173.32 1327.94 172.48C1329.7 171.6 1331.68 171.16 1333.88 171.16ZM1385.28 196.3V205H1380.06C1376.34 205 1373.44 204.1 1371.36 202.3C1369.28 200.46 1368.24 197.48 1368.24 193.36V180.04H1364.16V171.52H1368.24V163.36H1378.5V171.52H1385.22V180.04H1378.5V193.48C1378.5 194.48 1378.74 195.2 1379.22 195.64C1379.7 196.08 1380.5 196.3 1381.62 196.3H1385.28ZM1411.58 171.16C1415.42 171.16 1418.5 172.44 1420.82 175C1423.14 177.52 1424.3 181 1424.3 185.44V205H1414.1V186.82C1414.1 184.58 1413.52 182.84 1412.36 181.6C1411.2 180.36 1409.64 179.74 1407.68 179.74C1405.72 179.74 1404.16 180.36 1403 181.6C1401.84 182.84 1401.26 184.58 1401.26 186.82V205H1391V160.6H1401.26V176.02C1402.3 174.54 1403.72 173.36 1405.52 172.48C1407.32 171.6 1409.34 171.16 1411.58 171.16ZM1429.39 188.2C1429.39 184.76 1430.03 181.74 1431.31 179.14C1432.63 176.54 1434.41 174.54 1436.65 173.14C1438.89 171.74 1441.39 171.04 1444.15 171.04C1446.51 171.04 1448.57 171.52 1450.33 172.48C1452.13 173.44 1453.51 174.7 1454.47 176.26V171.52H1464.73V205H1454.47V200.26C1453.47 201.82 1452.07 203.08 1450.27 204.04C1448.51 205 1446.45 205.48 1444.09 205.48C1441.37 205.48 1438.89 204.78 1436.65 203.38C1434.41 201.94 1432.63 199.92 1431.31 197.32C1430.03 194.68 1429.39 191.64 1429.39 188.2ZM1454.47 188.26C1454.47 185.7 1453.75 183.68 1452.31 182.2C1450.91 180.72 1449.19 179.98 1447.15 179.98C1445.11 179.98 1443.37 180.72 1441.93 182.2C1440.53 183.64 1439.83 185.64 1439.83 188.2C1439.83 190.76 1440.53 192.8 1441.93 194.32C1443.37 195.8 1445.11 196.54 1447.15 196.54C1449.19 196.54 1450.91 195.8 1452.31 194.32C1453.75 192.84 1454.47 190.82 1454.47 188.26ZM1490.81 196.3V205H1485.59C1481.87 205 1478.97 204.1 1476.89 202.3C1474.81 200.46 1473.77 197.48 1473.77 193.36V180.04H1469.69V171.52H1473.77V163.36H1484.03V171.52H1490.75V180.04H1484.03V193.48C1484.03 194.48 1484.27 195.2 1484.75 195.64C1485.23 196.08 1486.03 196.3 1487.15 196.3H1490.81ZM1514.34 168.04C1512.54 168.04 1511.06 167.52 1509.9 166.48C1508.78 165.4 1508.22 164.08 1508.22 162.52C1508.22 160.92 1508.78 159.6 1509.9 158.56C1511.06 157.48 1512.54 156.94 1514.34 156.94C1516.1 156.94 1517.54 157.48 1518.66 158.56C1519.82 159.6 1520.4 160.92 1520.4 162.52C1520.4 164.08 1519.82 165.4 1518.66 166.48C1517.54 167.52 1516.1 168.04 1514.34 168.04ZM1519.5 209.32C1519.5 213.44 1518.46 216.4 1516.38 218.2C1514.3 220.04 1511.4 220.96 1507.68 220.96H1503.66V212.26H1506.12C1507.24 212.26 1508.04 212.04 1508.52 211.6C1509 211.16 1509.24 210.44 1509.24 209.44V171.52H1519.5V209.32ZM1559.94 171.52V205H1549.68V200.44C1548.64 201.92 1547.22 203.12 1545.42 204.04C1543.66 204.92 1541.7 205.36 1539.54 205.36C1536.98 205.36 1534.72 204.8 1532.76 203.68C1530.8 202.52 1529.28 200.86 1528.2 198.7C1527.12 196.54 1526.58 194 1526.58 191.08V171.52H1536.78V189.7C1536.78 191.94 1537.36 193.68 1538.52 194.92C1539.68 196.16 1541.24 196.78 1543.2 196.78C1545.2 196.78 1546.78 196.16 1547.94 194.92C1549.1 193.68 1549.68 191.94 1549.68 189.7V171.52H1559.94ZM1580.93 205.48C1578.01 205.48 1575.41 204.98 1573.13 203.98C1570.85 202.98 1569.05 201.62 1567.73 199.9C1566.41 198.14 1565.67 196.18 1565.51 194.02H1575.65C1575.77 195.18 1576.31 196.12 1577.27 196.84C1578.23 197.56 1579.41 197.92 1580.81 197.92C1582.09 197.92 1583.07 197.68 1583.75 197.2C1584.47 196.68 1584.83 196.02 1584.83 195.22C1584.83 194.26 1584.33 193.56 1583.33 193.12C1582.33 192.64 1580.71 192.12 1578.47 191.56C1576.07 191 1574.07 190.42 1572.47 189.82C1570.87 189.18 1569.49 188.2 1568.33 186.88C1567.17 185.52 1566.59 183.7 1566.59 181.42C1566.59 179.5 1567.11 177.76 1568.15 176.2C1569.23 174.6 1570.79 173.34 1572.83 172.42C1574.91 171.5 1577.37 171.04 1580.21 171.04C1584.41 171.04 1587.71 172.08 1590.11 174.16C1592.55 176.24 1593.95 179 1594.31 182.44H1584.83C1584.67 181.28 1584.15 180.36 1583.27 179.68C1582.43 179 1581.31 178.66 1579.91 178.66C1578.71 178.66 1577.79 178.9 1577.15 179.38C1576.51 179.82 1576.19 180.44 1576.19 181.24C1576.19 182.2 1576.69 182.92 1577.69 183.4C1578.73 183.88 1580.33 184.36 1582.49 184.84C1584.97 185.48 1586.99 186.12 1588.55 186.76C1590.11 187.36 1591.47 188.36 1592.63 189.76C1593.83 191.12 1594.45 192.96 1594.49 195.28C1594.49 197.24 1593.93 199 1592.81 200.56C1591.73 202.08 1590.15 203.28 1588.07 204.16C1586.03 205.04 1583.65 205.48 1580.93 205.48ZM1619.42 196.3V205H1614.2C1610.48 205 1607.58 204.1 1605.5 202.3C1603.42 200.46 1602.38 197.48 1602.38 193.36V180.04H1598.3V171.52H1602.38V163.36H1612.64V171.52H1619.36V180.04H1612.64V193.48C1612.64 194.48 1612.88 195.2 1613.36 195.64C1613.84 196.08 1614.64 196.3 1615.76 196.3H1619.42ZM1685.91 171.52L1676.85 205H1665.51L1660.23 183.28L1654.77 205H1643.49L1634.37 171.52H1644.63L1649.37 195.46L1655.01 171.52H1665.87L1671.57 195.34L1676.25 171.52H1685.91ZM1705.07 205.48C1701.79 205.48 1698.83 204.78 1696.19 203.38C1693.59 201.98 1691.53 199.98 1690.01 197.38C1688.53 194.78 1687.79 191.74 1687.79 188.26C1687.79 184.82 1688.55 181.8 1690.07 179.2C1691.59 176.56 1693.67 174.54 1696.31 173.14C1698.95 171.74 1701.91 171.04 1705.19 171.04C1708.47 171.04 1711.43 171.74 1714.07 173.14C1716.71 174.54 1718.79 176.56 1720.31 179.2C1721.83 181.8 1722.59 184.82 1722.59 188.26C1722.59 191.7 1721.81 194.74 1720.25 197.38C1718.73 199.98 1716.63 201.98 1713.95 203.38C1711.31 204.78 1708.35 205.48 1705.07 205.48ZM1705.07 196.6C1707.03 196.6 1708.69 195.88 1710.05 194.44C1711.45 193 1712.15 190.94 1712.15 188.26C1712.15 185.58 1711.47 183.52 1710.11 182.08C1708.79 180.64 1707.15 179.92 1705.19 179.92C1703.19 179.92 1701.53 180.64 1700.21 182.08C1698.89 183.48 1698.23 185.54 1698.23 188.26C1698.23 190.94 1698.87 193 1700.15 194.44C1701.47 195.88 1703.11 196.6 1705.07 196.6ZM1738.29 177.1C1739.49 175.26 1740.99 173.82 1742.79 172.78C1744.59 171.7 1746.59 171.16 1748.79 171.16V182.02H1745.97C1743.41 182.02 1741.49 182.58 1740.21 183.7C1738.93 184.78 1738.29 186.7 1738.29 189.46V205H1728.03V171.52H1738.29V177.1ZM1774.15 205L1763.95 190.96V205H1753.69V160.6H1763.95V185.14L1774.09 171.52H1786.75L1772.83 188.32L1786.87 205H1774.15ZM1804.4 205.48C1801.48 205.48 1798.88 204.98 1796.6 203.98C1794.32 202.98 1792.52 201.62 1791.2 199.9C1789.88 198.14 1789.14 196.18 1788.98 194.02H1799.12C1799.24 195.18 1799.78 196.12 1800.74 196.84C1801.7 197.56 1802.88 197.92 1804.28 197.92C1805.56 197.92 1806.54 197.68 1807.22 197.2C1807.94 196.68 1808.3 196.02 1808.3 195.22C1808.3 194.26 1807.8 193.56 1806.8 193.12C1805.8 192.64 1804.18 192.12 1801.94 191.56C1799.54 191 1797.54 190.42 1795.94 189.82C1794.34 189.18 1792.96 188.2 1791.8 186.88C1790.64 185.52 1790.06 183.7 1790.06 181.42C1790.06 179.5 1790.58 177.76 1791.62 176.2C1792.7 174.6 1794.26 173.34 1796.3 172.42C1798.38 171.5 1800.84 171.04 1803.68 171.04C1807.88 171.04 1811.18 172.08 1813.58 174.16C1816.02 176.24 1817.42 179 1817.78 182.44H1808.3C1808.14 181.28 1807.62 180.36 1806.74 179.68C1805.9 179 1804.78 178.66 1803.38 178.66C1802.18 178.66 1801.26 178.9 1800.62 179.38C1799.98 179.82 1799.66 180.44 1799.66 181.24C1799.66 182.2 1800.16 182.92 1801.16 183.4C1802.2 183.88 1803.8 184.36 1805.96 184.84C1808.44 185.48 1810.46 186.12 1812.02 186.76C1813.58 187.36 1814.94 188.36 1816.1 189.76C1817.3 191.12 1817.92 192.96 1817.96 195.28C1817.96 197.24 1817.4 199 1816.28 200.56C1815.2 202.08 1813.62 203.28 1811.54 204.16C1809.5 205.04 1807.12 205.48 1804.4 205.48Z" fill="black"/>
</svg>
